<?xml version="1.0" standalone="no"?>
<!DOCTYPE svg PUBLIC "-//W3C//DTD SVG 20010904//EN"
 "http://www.w3.org/TR/2001/REC-SVG-20010904/DTD/svg10.dtd">
<svg version="1.0" xmlns="http://www.w3.org/2000/svg"
 width="500.000000pt" height="500.000000pt" viewBox="0 0 500.000000 500.000000"
 preserveAspectRatio="xMidYMid meet">
<metadata>
Created by potrace 1.16, written by Peter Selinger 2001-2019
</metadata>
<g transform="translate(0.000000,500.000000) scale(0.100000,-0.100000)"
fill="#000000" stroke="none">
<path d="M2409 4837 c-39 -26 -97 -108 -106 -149 -5 -24 -10 -28 -40 -28 -41
0 -191 -49 -263 -85 -132 -67 -238 -153 -313 -255 -56 -74 -117 -181 -117
-202 0 -22 -23 -24 -39 -4 -18 22 -99 46 -153 46 -53 0 -143 -37 -176 -73 -36
-39 -82 -142 -98 -218 -28 -130 -2 -274 66 -374 41 -59 124 -133 175 -155 59
-25 189 -52 218 -44 19 4 28 -2 51 -36 37 -56 144 -161 189 -185 25 -13 36
-26 35 -40 -1 -11 4 -36 11 -56 12 -37 12 -37 -55 -100 -66 -64 -169 -194
-236 -300 -78 -122 -212 -428 -223 -509 -7 -57 -57 -234 -80 -285 -45 -103
-152 -227 -262 -303 -28 -20 -207 -112 -217 -112 -2 0 -3 21 -3 48 4 135 -116
202 -248 138 -45 -22 -115 -77 -115 -91 0 -3 -9 -18 -20 -33 -30 -41 -53 -145
-46 -211 12 -122 48 -180 140 -229 46 -24 62 -27 154 -27 56 0 102 -2 102 -3
0 -2 -10 -18 -22 -35 -31 -44 -46 -90 -54 -168 -8 -82 11 -198 41 -259 74
-146 234 -254 453 -306 72 -18 394 -24 527 -10 187 18 514 110 742 208 88 37
95 39 117 25 32 -21 176 -77 338 -131 149 -50 338 -92 443 -100 97 -7 411 -8
464 -2 163 20 353 111 448 216 72 79 121 231 109 342 -8 82 -33 162 -56 183
-38 35 -25 41 69 37 80 -4 94 -2 149 23 69 31 104 64 127 119 60 143 32 291
-72 392 -119 113 -258 114 -316 1 -11 -21 -20 -56 -20 -78 0 -21 -4 -39 -9
-39 -13 0 -80 34 -173 89 -47 27 -113 79 -162 126 -69 68 -89 95 -127 175 -26
56 -56 141 -72 205 -47 196 -85 307 -149 440 -90 187 -204 348 -321 453 -53
48 -65 64 -59 79 4 10 9 35 11 56 1 21 4 40 6 41 1 1 26 17 55 35 57 36 164
144 185 188 11 24 19 28 63 30 28 1 87 13 133 28 100 32 169 84 230 174 51 76
72 140 79 241 12 178 -68 340 -196 397 -47 21 -63 23 -118 17 -42 -4 -76 -15
-99 -30 -45 -31 -52 -30 -60 4 -11 46 -128 214 -196 280 -63 61 -156 125 -256
176 -65 33 -213 76 -261 76 -36 0 -36 0 -33 73 3 85 -11 121 -50 125 -29 3
-102 -34 -133 -68 -28 -31 -48 -26 -43 10 3 20 -1 35 -12 45 -15 14 -20 13
-51 -8z m171 -126 c0 -4 -14 -36 -32 -70 -39 -76 -32 -88 57 -95 116 -10 269
-46 342 -81 75 -35 156 -85 185 -116 9 -9 21 -19 25 -20 21 -9 147 -181 174
-236 64 -134 93 -343 70 -503 -16 -104 -54 -211 -98 -270 -31 -42 -135 -140
-143 -135 -4 2 -10 28 -13 56 -4 28 -18 74 -32 102 -14 28 -25 55 -25 60 0 5
18 31 40 57 22 26 55 79 72 116 30 63 32 77 32 164 -1 152 -45 262 -139 348
-90 82 -212 108 -365 77 -79 -16 -203 -65 -216 -86 -3 -5 -18 -1 -33 10 -71
51 -276 100 -364 88 -94 -14 -145 -37 -205 -92 -72 -67 -108 -141 -130 -268
-24 -143 -1 -226 94 -349 24 -31 44 -61 44 -66 0 -5 -12 -36 -27 -68 -15 -33
-30 -77 -33 -99 -3 -22 -10 -40 -15 -40 -14 0 -130 128 -160 175 -12 19 -33
67 -46 105 -21 63 -24 87 -24 230 0 135 4 174 24 250 45 173 144 326 274 423
127 95 198 124 369 152 111 18 111 18 197 104 82 82 101 97 101 77z m-295
-676 c33 -9 93 -31 134 -50 40 -19 80 -35 89 -35 8 0 34 11 57 25 79 45 186
75 275 75 131 0 193 -39 247 -155 23 -50 27 -74 28 -145 0 -73 -4 -93 -27
-140 -15 -30 -44 -73 -64 -95 -64 -68 -75 -123 -37 -181 7 -11 25 -54 39 -95
37 -106 37 -194 1 -285 -31 -76 -52 -103 -112 -150 -112 -86 -209 -114 -392
-114 -316 0 -509 108 -557 312 -22 95 -10 176 44 297 22 49 40 96 40 106 0 27
-27 77 -65 118 -20 21 -48 62 -62 90 -24 45 -27 63 -27 137 1 139 49 235 137
279 52 26 164 28 252 6z m1421 -26 c51 -31 88 -118 92 -216 8 -177 -73 -301
-233 -359 -27 -9 -55 -22 -62 -27 -25 -19 -31 4 -13 51 30 79 43 203 35 344
-10 171 4 211 78 228 38 9 61 4 103 -21z m-2241 -3 c34 -27 31 1 27 -296 -2
-124 6 -189 33 -277 9 -28 -2 -29 -63 -8 -108 38 -177 98 -223 193 -53 108
-28 302 47 377 32 32 40 35 92 35 45 0 63 -5 87 -24z m470 -1213 c53 -81 199
-168 340 -204 120 -30 331 -33 450 -5 140 32 301 133 353 221 11 19 17 14 82
-55 38 -41 96 -110 127 -153 90 -122 199 -331 223 -429 111 -453 158 -551 330
-700 90 -78 129 -104 246 -160 182 -87 305 -118 333 -84 13 16 5 43 -39 127
-51 97 -35 138 40 104 85 -38 126 -120 118 -235 -8 -109 -49 -140 -184 -140
-87 0 -190 30 -403 120 -267 111 -350 158 -438 248 -78 81 -87 93 -139 197
-52 105 -75 183 -104 355 -23 139 -44 218 -63 244 -10 14 -21 16 -49 11 -21
-4 -45 -13 -54 -19 -16 -12 -15 -17 5 -70 38 -103 62 -282 66 -511 8 -392 -41
-474 -317 -534 -146 -31 -351 -45 -493 -31 -294 27 -425 80 -483 197 -48 95
-56 148 -55 373 1 220 21 375 63 501 12 34 18 65 13 69 -4 4 -26 13 -47 20
-37 12 -41 11 -58 -9 -22 -28 -34 -69 -54 -186 -39 -231 -101 -413 -175 -521
-47 -69 -142 -159 -207 -197 -90 -53 -489 -220 -587 -246 -57 -15 -189 -14
-229 3 -91 38 -113 192 -44 297 25 37 109 85 133 75 32 -12 28 -39 -20 -132
-55 -109 -53 -124 22 -124 82 0 302 90 427 175 62 42 186 158 220 205 60 83
106 198 151 369 25 95 50 182 55 192 6 10 10 25 10 34 0 18 99 225 150 315 34
60 99 150 136 190 12 14 44 49 70 78 26 28 50 52 54 52 4 0 16 -12 25 -27z
m-216 -1340 c-1 -76 29 -185 61 -226 11 -14 20 -28 20 -31 0 -3 -34 -6 -75 -6
-57 0 -90 -6 -138 -25 -74 -30 -168 -109 -197 -166 -51 -98 5 -256 106 -304
47 -22 212 -26 344 -9 199 27 250 19 350 -57 61 -47 140 -95 168 -104 27 -8
29 -35 2 -35 -11 0 -66 -18 -122 -39 -304 -115 -465 -144 -788 -145 -208 0
-284 9 -374 41 -236 85 -342 267 -276 473 33 104 95 158 293 254 84 41 181 86
216 100 71 29 148 75 200 121 80 70 152 147 171 185 11 22 25 40 30 40 5 0 9
-30 9 -67z m1625 2 c53 -89 227 -225 366 -285 103 -45 307 -147 344 -172 58
-39 118 -103 144 -153 23 -43 27 -62 27 -140 0 -77 -4 -98 -27 -145 -63 -131
-227 -227 -418 -246 -80 -7 -343 -7 -425 1 -33 3 -85 7 -115 10 -122 9 -443
109 -630 196 -98 46 -253 136 -325 190 -27 20 -81 54 -119 75 -69 37 -72 38
-175 37 -58 0 -131 -4 -161 -8 -30 -4 -104 -10 -165 -12 -140 -5 -146 -2 -152
93 -5 67 -4 70 26 100 54 54 95 68 201 69 146 0 353 -55 867 -230 265 -90 428
-133 529 -140 42 -4 85 -10 97 -14 12 -4 74 -5 137 -1 144 8 184 26 236 105
35 52 36 57 32 127 -4 88 -32 136 -112 196 -76 57 -159 85 -242 80 -41 -2 -66
1 -65 7 1 6 13 33 27 60 29 60 55 190 45 219 -5 12 -6 27 -4 34 7 18 26 0 57
-53z m68 -422 c88 -48 125 -121 94 -181 -23 -45 -43 -52 -143 -52 -172 0 -323
27 -563 98 -58 18 -124 36 -147 42 -24 6 -43 14 -43 19 0 4 39 11 88 14 48 4
130 15 182 26 52 11 111 23 130 26 19 3 60 12 90 20 91 23 102 24 183 20 61
-4 89 -10 129 -32z"/>
<path d="M2348 3719 c-39 -29 -121 -35 -190 -15 -73 21 -78 20 -78 -7 0 -24
38 -66 77 -86 38 -19 141 -14 180 10 36 22 63 65 63 99 0 25 -17 25 -52 -1z"/>
<path d="M2615 3730 c-9 -15 4 -52 29 -78 34 -38 75 -54 137 -54 69 0 114 22
142 71 29 48 13 57 -65 37 -88 -22 -126 -20 -184 9 -57 29 -51 28 -59 15z"/>
<path d="M2340 3405 c-19 -23 9 -58 76 -94 76 -41 105 -39 182 9 55 35 63 44
60 68 -3 25 -7 27 -55 30 -46 3 -56 -1 -79 -23 -25 -26 -25 -26 -55 0 -36 29
-108 35 -129 10z"/>
<path d="M2161 3008 c-16 -44 4 -62 103 -94 118 -39 317 -45 436 -15 100 25
134 47 138 87 5 55 -7 59 -99 28 -78 -26 -95 -28 -234 -28 -135 0 -158 3 -230
27 -44 15 -85 27 -92 27 -6 0 -16 -14 -22 -32z"/>
</g>
</svg>
